# xmcd CD database file
#
# Track frame offsets:
#	150
#	32187
#	56501
#	83789
#	114010
#
# Disc length: 1854 seconds
#
# Revision: 0
# Processed by: cddbd v1.5.1PL0 Copyright (c) Steve Scherf et al.
# Submitted via: CDex 1.51
#
DISCID=32073c05
DTITLE=Unit GrowSphere - Einde Walz
DYEAR=2003
DGENRE=Game
TTITLE0=MIND THRESHOLD (ODEON)
TTITLE1=DOA (D+VINE[LUV])
TTITLE2=月姫 (月姫)
TTITLE3=Supersonic Showdown (鬼哭街)
TTITLE4=神域 (王道勇者 - Track.9)
EXTD=YEAR: 2003
EXTT0=
EXTT1=
EXTT2=
EXTT3=
EXTT4=
PLAYORDER=
